<mxfile host="65bd71144e">
    <diagram id="0pbE2ng8Wz-z5p-49bF9" name="Page-1">
        <mxGraphModel dx="460" dy="243" grid="1" gridSize="10" guides="1" tooltips="1" connect="1" arrows="1" fold="1" page="1" pageScale="1" pageWidth="827" pageHeight="1169" math="0" shadow="0">
            <root>
                <mxCell id="0"/>
                <mxCell id="1" parent="0"/>
                <mxCell id="3" value="&amp;gt; docs_" style="shape=cube;whiteSpace=wrap;html=1;boundedLbl=1;backgroundOutline=1;darkOpacity=0.05;darkOpacity2=0.1;size=10;fillColor=none;strokeColor=#E6E6E6;fontFamily=Tahoma;fontColor=#FF00FF;fontStyle=0" vertex="1" parent="1">
                    <mxGeometry x="350" y="210" width="80" height="80" as="geometry"/>
                </mxCell>
            </root>
        </mxGraphModel>
    </diagram>
</mxfile>